<mxfile host="app.diagrams.net" modified="2024-02-09T19:04:16.657Z" agent="Mozilla/5.0 (Windows NT 10.0; Win64; x64; rv:122.0) Gecko/20100101 Firefox/122.0" etag="i077oWo_pu3Oip9GSy2o" version="23.0.1" type="device">
  <diagram name="Page-1" id="kEDuZrxrqUjYdgp2lT-D">
    <mxGraphModel dx="478" dy="251" grid="1" gridSize="10" guides="1" tooltips="1" connect="1" arrows="1" fold="1" page="1" pageScale="1" pageWidth="850" pageHeight="1100" math="0" shadow="0">
      <root>
        <mxCell id="0" />
        <mxCell id="1" parent="0" />
        <mxCell id="nvIVHTsPeh2A6om0SP8B-1" value="" style="rounded=1;whiteSpace=wrap;html=1;fillColor=#1A5681;strokeColor=none;" vertex="1" parent="1">
          <mxGeometry x="240" y="290" width="120" height="120" as="geometry" />
        </mxCell>
        <mxCell id="nvIVHTsPeh2A6om0SP8B-2" value="&lt;div align=&quot;left&quot; style=&quot;font-size: 36px;&quot;&gt;&lt;font style=&quot;font-size: 36px;&quot; color=&quot;#ffffff&quot;&gt;NO&amp;nbsp;&lt;/font&gt;&lt;/div&gt;&lt;div align=&quot;left&quot; style=&quot;font-size: 36px;&quot;&gt;&lt;font style=&quot;font-size: 36px;&quot; color=&quot;#ffffff&quot;&gt;WK+&lt;/font&gt;&lt;/div&gt;" style="text;html=1;strokeColor=none;fillColor=none;align=left;verticalAlign=middle;whiteSpace=wrap;rounded=0;" vertex="1" parent="1">
          <mxGeometry x="255" y="305" width="90" height="90" as="geometry" />
        </mxCell>
      </root>
    </mxGraphModel>
  </diagram>
</mxfile>
